<svg height="480pt" viewBox="0 0 480 480" width="480pt" xmlns="http://www.w3.org/2000/svg"><path d="m464 80h-104v-48h-16v-32h-208v32h-16v48h-104v32h-16v368h480v-368h-16zm-16 16v16h-88v-16zm-296-80h176v16h-176zm-120 80h88v16h-88zm-16 368v-336h104v336zm216-56v12.6875l-32 32v-41.375l32-32zm16 16v-12.6875l32-32v41.375l-32 32zm0-35.3125v-20.6875h20.6875zm-48 0v-20.6875h20.6875zm11.3125 75.3125 20.6875-20.6875v20.6875zm48 0 20.6875-20.6875v20.6875zm36.6875 0v-112h-112v112h-48v-416h208v416zm168 0h-104v-336h104zm0 0"/><path d="m320 64h-160c-4.417969 0-8 3.582031-8 8v240c0 4.417969 3.582031 8 8 8h160c4.417969 0 8-3.582031 8-8v-240c0-4.417969-3.582031-8-8-8zm-8 96h-48v-32h48zm0 48h-48v-32h48zm-48 16h48v32h-48zm48-112h-48v-32h48zm-144 64h48v32h-48zm48-16h-48v-32h48zm-48 64h48v32h-48zm0-144h48v32h-48zm0 192h48v32h-48zm64-8v-184h16v224h-16zm80 40h-48v-32h48zm0 0"/><path d="m96 304h-56c-4.417969 0-8 3.582031-8 8v48c0 4.417969 3.582031 8 8 8h56c4.417969 0 8-3.582031 8-8v-48c0-4.417969-3.582031-8-8-8zm-8 48h-40v-32h40zm0 0"/><path d="m96 384h-56c-4.417969 0-8 3.582031-8 8v48c0 4.417969 3.582031 8 8 8h56c4.417969 0 8-3.582031 8-8v-48c0-4.417969-3.582031-8-8-8zm-8 48h-40v-32h40zm0 0"/><path d="m96 144h-56c-4.417969 0-8 3.582031-8 8v48c0 4.417969 3.582031 8 8 8h56c4.417969 0 8-3.582031 8-8v-48c0-4.417969-3.582031-8-8-8zm-8 48h-40v-32h40zm0 0"/><path d="m96 224h-56c-4.417969 0-8 3.582031-8 8v48c0 4.417969 3.582031 8 8 8h56c4.417969 0 8-3.582031 8-8v-48c0-4.417969-3.582031-8-8-8zm-8 48h-40v-32h40zm0 0"/><path d="m384 368h56c4.417969 0 8-3.582031 8-8v-48c0-4.417969-3.582031-8-8-8h-56c-4.417969 0-8 3.582031-8 8v48c0 4.417969 3.582031 8 8 8zm8-48h40v32h-40zm0 0"/><path d="m384 448h56c4.417969 0 8-3.582031 8-8v-48c0-4.417969-3.582031-8-8-8h-56c-4.417969 0-8 3.582031-8 8v48c0 4.417969 3.582031 8 8 8zm8-48h40v32h-40zm0 0"/><path d="m384 208h56c4.417969 0 8-3.582031 8-8v-48c0-4.417969-3.582031-8-8-8h-56c-4.417969 0-8 3.582031-8 8v48c0 4.417969 3.582031 8 8 8zm8-48h40v32h-40zm0 0"/><path d="m384 288h56c4.417969 0 8-3.582031 8-8v-48c0-4.417969-3.582031-8-8-8h-56c-4.417969 0-8 3.582031-8 8v48c0 4.417969 3.582031 8 8 8zm8-48h40v32h-40zm0 0"/></svg>